# xmcd
#
# Track frame offsets:
#	150
#	12294
#	27088
#	38414
#	51491
#	60822
#	72530
#	86712
#	103908
#	117237
#	137916
#	148011
#	161513
#
# Disc length: 2344 seconds
# Revision: 0
# Processed by: cddbd v1.5.2PL0 Copyright (c) Steve Scherf et al.
# Submitted via: dBpowerAMP V12.0
#
DISCID=b109260d
DTITLE=Annie Lou - End Zone
DYEAR=2017
DGENRE=Country
TTITLE0=Witty Girl
TTITLE1=You'll Be An Angel (Sail Away Ladies)
TTITLE2=Delilah
TTITLE3=End Zone
TTITLE4=Radiator Charlie's Mortgage Lifter
TTITLE5=More Than Blue
TTITLE6=Old Folk Love Song
TTITLE7=The Smoky Hills
TTITLE8=Home Fires
TTITLE9=Farewell Nellie
TTITLE10=Them Government Blues
TTITLE11=Fire In The Hole
TTITLE12=End Zone Reprise
EXTD=
EXTT0=
EXTT1=
EXTT2=
EXTT3=
EXTT4=
EXTT5=
EXTT6=
EXTT7=
EXTT8=
EXTT9=
EXTT10=
EXTT11=
EXTT12=
PLAYORDER=
